<svg width="2048" height="2048" viewBox="0 0 2048 2048" fill="none" xmlns="http://www.w3.org/2000/svg">
  <defs>
    <linearGradient id="bg" x1="0" y1="0" x2="1" y2="1">
      <stop offset="0%" stop-color="#050505"/>
      <stop offset="100%" stop-color="#0B0B12"/>
    </linearGradient>
    <linearGradient id="mark" x1="0" y1="0" x2="1" y2="1">
      <stop offset="0%" stop-color="#D946EF"/>
      <stop offset="100%" stop-color="#7C3AED"/>
    </linearGradient>
    <filter id="glow" x="180" y="420" width="620" height="780" filterUnits="userSpaceOnUse">
      <feGaussianBlur stdDeviation="26"/>
    </filter>
  </defs>
  <rect width="2048" height="2048" fill="url(#bg)"/>
  <circle cx="1560" cy="440" r="260" fill="#C026D3" opacity="0.05"/>
  <circle cx="360" cy="1620" r="320" fill="#C026D3" opacity="0.04"/>
  <g opacity="0.22" filter="url(#glow)">
    <path d="M760 540C460 540 250 720 250 830C250 940 460 1120 760 1120V980C560 980 410 900 410 830C410 760 560 680 760 680V540Z" fill="#C026D3"/>
  </g>
  <path d="M760 540C460 540 250 720 250 830C250 940 460 1120 760 1120V980C560 980 410 900 410 830C410 760 560 680 760 680V540Z" fill="url(#mark)"/>
  <text x="820" y="1010" fill="#F5F5F7" font-size="220" font-weight="800" font-family="Inter, Arial, sans-serif" letter-spacing="16">INELOG</text>
  <text x="1024" y="1188" fill="#AAAAAA" font-size="58" font-weight="600" font-family="Inter, Arial, sans-serif" letter-spacing="12" text-anchor="middle">ALL YOUR CONTENT. ONE PLACE.</text>
</svg>
