<svg width="1024" height="1024" viewBox="0 0 1024 1024" fill="none" xmlns="http://www.w3.org/2000/svg">
  <defs>
    <linearGradient id="bg" x1="0" y1="0" x2="1" y2="1">
      <stop offset="0%" stop-color="#050505"/>
      <stop offset="100%" stop-color="#0B0B10"/>
    </linearGradient>
    <linearGradient id="mark" x1="256" y1="240" x2="768" y2="784" gradientUnits="userSpaceOnUse">
      <stop offset="0%" stop-color="#D946EF"/>
      <stop offset="100%" stop-color="#7C3AED"/>
    </linearGradient>
    <filter id="glow" x="96" y="96" width="832" height="832" filterUnits="userSpaceOnUse">
      <feGaussianBlur stdDeviation="16"/>
    </filter>
  </defs>
  <rect width="1024" height="1024" rx="220" fill="url(#bg)"/>
  <g transform="translate(-24 -8)">
  <g opacity="0.24" filter="url(#glow)">
    <path d="M702 328C675.594 278.799 625.644 248 570 248C487.291 248 420 315.291 420 398V626C420 708.709 487.291 776 570 776C625.644 776 675.594 745.201 702 696" fill="none" stroke="#C026D3" stroke-width="132" stroke-linecap="round" stroke-linejoin="round"/>
  </g>
  <path d="M702 328C675.594 278.799 625.644 248 570 248C487.291 248 420 315.291 420 398V626C420 708.709 487.291 776 570 776C625.644 776 675.594 745.201 702 696" fill="none" stroke="url(#mark)" stroke-width="132" stroke-linecap="round" stroke-linejoin="round"/>
  </g>
</svg>
